# xmcd
#
# Track frame offsets: 
#        150
#        17021
#        35321
#        57023
#        77566
#        93459
#        116050
#        137028
#        151321
#        171110
#        190132
#
# Disc length: 2798 seconds
#
# Revision: 3
# Processed by: cddbd v1.5.2PL0 Copyright (c) Steve Scherf et al.
# Submitted via: ExactAudioCopy v0.95a5
#
DISCID=820aec0b
DTITLE=Prefab Sprout - Let's Change The World With Music
DYEAR=2009
DGENRE=Rock
TTITLE0=Let There Be Music
TTITLE1=Ride
TTITLE2=I Love Music
TTITLE3=God Watch Over You
TTITLE4=Music Is A Princess
TTITLE5=Earth: The Story So Far
TTITLE6=Last Of The Great Romantics
TTITLE7=Falling In Love
TTITLE8=Sweet Gospel Music
TTITLE9=Meet The New Mozart
TTITLE10=Angel Of Love
EXTD=
EXTT0=
EXTT1=
EXTT2=
EXTT3=
EXTT4=
EXTT5=
EXTT6=
EXTT7=
EXTT8=
EXTT9=
EXTT10=
PLAYORDER=
